<?xml version="1.0" standalone="no"?>
<!DOCTYPE svg PUBLIC "-//W3C//DTD SVG 20010904//EN"
 "http://www.w3.org/TR/2001/REC-SVG-20010904/DTD/svg10.dtd">
<svg version="1.0" xmlns="http://www.w3.org/2000/svg"
 width="100.000000pt" height="100.000000pt" viewBox="0 0 100.000000 100.000000"
 preserveAspectRatio="xMidYMid meet">

<g transform="translate(0.000000,100.000000) scale(0.100000,-0.100000)"
fill="#000000" stroke="none">
<path d="M304 849 c-10 -17 13 -36 27 -22 12 12 4 33 -11 33 -5 0 -12 -5 -16
-11z"/>
<path d="M714 833 c3 -15 16 -37 28 -50 l23 -22 12 24 c10 22 9 25 -8 25 -10
0 -19 5 -19 11 0 11 -25 39 -34 39 -4 0 -4 -12 -2 -27z"/>
<path d="M455 839 c-25 -5 -20 -7 22 -8 95 -2 162 -29 224 -92 65 -65 75 -90
48 -115 -10 -9 -19 -26 -19 -36 0 -25 -28 -78 -40 -78 -13 0 -13 12 0 44 5 14
7 32 4 40 -6 15 -40 16 -62 2 -14 -9 -32 1 -32 17 0 25 -18 39 -39 32 -14 -4
-24 -20 -31 -48 -18 -69 -32 -99 -42 -89 -6 6 -6 17 0 28 10 21 5 45 -12 56
-7 5 -4 8 7 8 12 0 17 6 15 17 -4 22 -28 29 -28 9 0 -19 -4 -20 -28 -5 -15 9
-24 6 -52 -20 -19 -17 -42 -31 -50 -31 -9 0 -21 -5 -28 -12 -9 -9 -12 -9 -12
-1 0 7 -10 15 -22 19 -13 4 -29 15 -36 25 -19 27 -30 23 -41 -13 -10 -30 -10
-29 -5 12 4 25 7 49 8 54 0 5 -5 11 -11 13 -7 3 -13 -3 -13 -12 0 -13 -6 -16
-25 -11 -20 5 -25 3 -25 -12 0 -10 -11 -29 -25 -42 -29 -28 -32 -45 -8 -59 14
-7 18 -23 19 -63 0 -37 8 -67 24 -96 24 -42 34 -47 89 -42 14 1 22 -3 19 -10
-2 -7 -22 -14 -43 -16 -22 -2 -41 -8 -43 -14 -2 -5 -14 -10 -27 -10 -36 0 -48
-23 -40 -80 8 -56 27 -73 52 -47 14 14 18 14 43 -4 19 -15 39 -19 71 -17 37 3
47 8 64 35 11 18 23 32 28 33 11 0 8 -28 -5 -50 -18 -29 4 -50 29 -28 22 18
90 31 99 17 8 -14 75 -40 85 -33 5 3 9 11 9 19 0 24 20 27 56 10 44 -21 59
-15 68 26 5 25 1 39 -19 65 -14 18 -24 43 -23 56 3 22 0 23 -46 20 -28 -1 -54
-8 -58 -15 -5 -8 -8 -8 -8 -1 0 13 -29 23 -47 17 -27 -9 0 -31 39 -31 55 -1
57 -7 4 -23 -36 -10 -46 -18 -48 -38 -2 -13 -9 -26 -15 -28 -14 -5 -76 53 -86
80 -4 9 -16 17 -27 17 -12 0 -19 -4 -16 -9 11 -18 -27 -21 -52 -5 l-26 17 23
19 23 18 -26 21 c-14 11 -38 40 -52 64 -29 49 -24 77 8 49 16 -15 22 -16 39
-6 11 7 29 10 40 7 15 -5 19 -2 19 18 0 31 22 51 38 35 7 -7 12 -18 12 -25 0
-15 8 -17 65 -14 33 2 42 -2 50 -21 16 -37 42 -34 59 7 9 20 20 34 25 30 6 -3
14 9 19 27 10 41 37 49 46 14 6 -24 9 -26 66 -22 57 3 59 2 63 -23 3 -26 4
-26 16 7 12 29 17 32 41 27 22 -5 30 -1 44 19 9 14 16 29 16 33 0 4 -5 0 -11
-9 -17 -30 -30 -21 -23 17 4 22 2 41 -6 50 -10 12 -9 15 4 15 9 0 16 3 16 6 0
11 -54 75 -72 85 -18 10 -19 7 -12 -25 5 -29 3 -36 -10 -36 -9 0 -16 6 -16 14
0 27 -89 113 -137 133 -53 23 -132 32 -178 22z m390 -179 c-3 -5 -10 -10 -16
-10 -5 0 -9 5 -9 10 0 6 7 10 16 10 8 0 12 -4 9 -10z m-10 -72 c-7 -28 -24
-53 -32 -44 -1 1 0 19 4 39 3 23 11 37 20 37 11 0 13 -8 8 -32z m-385 -54 c-8
-23 -16 -32 -22 -26 -6 6 -3 23 7 48 21 47 32 29 15 -22z m-307 40 c3 -3 3
-12 0 -19 -6 -17 -33 -8 -33 11 0 14 21 19 33 8z m124 -96 c-3 -8 -6 -5 -6 6
-1 11 2 17 5 13 3 -3 4 -12 1 -19z"/>
<path d="M260 805 c0 -28 12 -32 30 -10 14 16 6 35 -16 35 -8 0 -14 -10 -14
-25z"/>
<path d="M215 781 c-6 -5 -19 -11 -30 -13 -24 -4 -32 -68 -9 -68 8 0 14 -4 14
-10 0 -20 29 -10 36 13 3 12 13 30 22 39 12 14 12 20 2 33 -14 17 -22 19 -35
6z"/>
<path d="M835 761 c-10 -18 17 -23 33 -7 15 15 15 16 -5 16 -12 0 -24 -4 -28
-9z"/>
<path d="M361 654 c0 -11 3 -14 6 -6 3 7 2 16 -1 19 -3 4 -6 -2 -5 -13z"/>
<path d="M820 456 c0 -8 -10 -31 -21 -51 -24 -41 -24 -41 14 -50 17 -5 27 -3
27 4 0 6 7 11 15 11 18 0 20 21 3 38 -8 8 -8 15 2 27 12 14 11 18 -1 26 -21
13 -39 11 -39 -5z"/>
<path d="M305 412 c-11 -2 -24 -9 -30 -14 -7 -8 -5 -9 6 -5 9 3 22 0 28 -6 13
-13 24 -4 19 15 -1 8 -12 12 -23 10z"/>
<path d="M345 400 c3 -5 8 -10 11 -10 2 0 4 5 4 10 0 6 -5 10 -11 10 -5 0 -7
-4 -4 -10z"/>
<path d="M375 400 c-4 -6 3 -10 14 -10 25 0 27 6 6 13 -8 4 -17 2 -20 -3z"/>
<path d="M425 387 c-8 -19 -2 -31 13 -26 5 2 6 13 2 24 -7 19 -8 19 -15 2z"/>
<path d="M498 393 c7 -3 16 -2 19 1 4 3 -2 6 -13 5 -11 0 -14 -3 -6 -6z"/>
<path d="M325 360 c-3 -6 1 -7 9 -4 18 7 21 14 7 14 -6 0 -13 -4 -16 -10z"/>
<path d="M733 323 c-18 -6 -16 -21 7 -50 11 -14 20 -40 20 -57 0 -49 11 -75
33 -82 14 -4 25 -1 34 12 11 15 10 20 -9 38 -14 13 -17 21 -9 24 18 6 41 -18
41 -44 0 -31 23 -31 44 1 16 25 16 26 -20 57 -19 17 -55 44 -79 59 -23 15 -44
31 -46 37 -2 5 -10 7 -16 5z"/>
</g>
</svg>
